<svg width="262" height="262" viewBox="0 0 262 262" fill="none" xmlns="http://www.w3.org/2000/svg">
<path fill-rule="evenodd" clip-rule="evenodd" d="M222.384 98.8472L127.299 39.6099L116.956 56.2119L91.7343 40.4991L32.4971 135.584L44.8671 143.291L32.4971 163.147L127.582 222.384L139.515 203.23L170.26 222.384L229.497 127.299L211.604 116.151L222.384 98.8472Z" fill="#BDD65C" fill-opacity="0.69"/>
<path fill-rule="evenodd" clip-rule="evenodd" d="M194.066 57.4609L82.1007 53.7027L81.4445 73.2518L51.7455 72.2549L47.9873 184.22L62.5533 184.709L61.7685 208.09L173.733 211.848L174.491 189.294L210.693 190.509L214.451 78.5442L193.382 77.837L194.066 57.4609Z" fill="#BDD65C" fill-opacity="0.69"/>
<path fill-rule="evenodd" clip-rule="evenodd" d="M148.848 35.7786L50.0043 88.5063L59.2106 105.764L32.9921 119.751L85.7199 218.594L98.5789 211.735L109.59 232.375L208.433 179.648L197.812 159.737L229.772 142.688L177.044 43.8444L158.444 53.7668L148.848 35.7786Z" fill="#BDD65C" fill-opacity="0.69"/>
<path fill-rule="evenodd" clip-rule="evenodd" d="M76.2899 51.0449L43.6811 158.222L62.3942 163.916L53.7447 192.345L160.922 224.953L165.164 211.01L187.545 217.82L220.154 110.643L198.565 104.074L209.108 69.4194L101.931 36.8106L95.7947 56.9793L76.2899 51.0449Z" fill="#BDD65C" fill-opacity="0.69"/>
</svg>
