<svg width="137" height="120" viewBox="0 0 137 120" fill="none" xmlns="http://www.w3.org/2000/svg">
<path d="M120.857 13.6192L124.744 28.1252L114.125 38.7444L99.6191 34.8575L95.7323 20.3514L106.351 9.73228L120.857 13.6192Z" fill="#61FF00"/>
<path d="M55.8575 10.6192L59.7444 25.1252L49.1252 35.7444L34.6192 31.8575L30.7323 17.3514L41.3514 6.73228L55.8575 10.6192Z" fill="#61FF00"/>
<path d="M31.8575 55.6192L35.7444 70.1252L25.1252 80.7444L10.6192 76.8575L6.73228 62.3514L17.3514 51.7323L31.8575 55.6192Z" fill="#61FF00"/>
<path d="M69.8575 87.6192L73.7444 102.125L63.1252 112.744L48.6192 108.857L44.7323 94.3514L55.3514 83.7323L69.8575 87.6192Z" fill="#61FF00"/>
<path d="M125.857 53.6192L129.744 68.1252L119.125 78.7444L104.619 74.8575L100.732 60.3514L111.351 49.7323L125.857 53.6192Z" fill="#61FF00"/>
<path d="M79.8575 44.6192L83.7444 59.1252L73.1252 69.7444L58.6192 65.8575L54.7323 51.3514L65.3514 40.7323L79.8575 44.6192Z" fill="#61FF00"/>
</svg>
