<svg width="186" height="194" viewBox="0 0 186 194" fill="none" xmlns="http://www.w3.org/2000/svg">
<path d="M4.52931 51.2789C19.4125 12.7585 32.756 41.0068 55.3373 31.7619C58.4166 -9.32654 99.9867 2.99999 106.658 2.99999C108.882 19.093 116.307 47.3755 128.213 31.7619C140.12 16.1483 155.756 31.4195 162.085 41.0068C158.664 52.1349 155.619 74.5966 170.81 75.4184C186.001 76.2401 186.035 97.6746 184.153 108.289C180.903 113.083 173.684 126.265 170.81 140.646C167.936 155.027 152.163 163.759 144.636 166.327C129.411 166.84 98.1392 171.463 94.8546 185.844C90.7489 203.82 47.6391 182.762 50.7184 178.653C53.7977 174.544 25.571 152.459 16.3332 151.432C7.09537 150.405 -3.16887 118.048 12.2275 108.289C27.6239 98.5306 -10.3538 89.7993 4.52931 51.2789Z" fill="#F75A5A" stroke="#FF0000"/>
</svg>
